<?xml version="1.0" encoding="UTF-8" standalone="no"?>
<!DOCTYPE svg PUBLIC "-//W3C//DTD SVG 1.1//EN" "http://www.w3.org/Graphics/SVG/1.1/DTD/svg11.dtd">
<svg width="100%" height="100%" viewBox="0 0 989 204" version="1.1" xmlns="http://www.w3.org/2000/svg" xmlns:xlink="http://www.w3.org/1999/xlink" xml:space="preserve" xmlns:serif="http://www.serif.com/" style="fill-rule:evenodd;clip-rule:evenodd;stroke-linejoin:round;stroke-miterlimit:2;">
    <g transform="matrix(-1,0,0,1,987.6,0)">
        <g id="Box">
            <path d="M972.55,5L15.05,5C10.18,5 6.23,8.95 6.23,13.82L6.23,187.68C6.23,192.55 10.18,196.5 15.05,196.5L972.55,196.5C977.42,196.5 981.37,192.55 981.37,187.68L981.37,13.82C981.37,8.95 977.42,5 972.55,5ZM726.88,178.82C726.88,183.71 722.91,187.68 718.02,187.68L25.17,187.68C20.28,187.68 16.31,183.71 16.31,178.82L16.31,22.68C16.31,17.79 20.28,13.82 25.17,13.82L718.02,13.82C722.91,13.82 726.88,17.79 726.88,22.68L726.88,178.82Z" style="fill:white;fill-rule:nonzero;"/>
        </g>
        <g id="BetterRTX">
            <g transform="matrix(-1,0,0,1,741.39,0)">
                <path d="M71.29,143.85L71.29,59.37L105.69,59.37C114.94,59.37 122.24,61.48 127.59,65.71C132.94,69.93 135.62,75.63 135.62,82.79L135.62,84.84C135.62,88.06 134.79,90.93 133.15,93.47C131.5,96 129.19,98.12 126.21,99.81C130.39,101.5 133.61,103.87 135.86,106.93C138.11,109.99 139.24,113.65 139.24,117.91L139.24,119.96C139.24,127.44 136.6,133.3 131.34,137.52C126.08,141.74 118.73,143.86 109.32,143.86L71.3,143.86L71.29,143.85ZM88.91,93.77L105.2,93.77C113.73,93.77 117.99,90.87 117.99,85.08L117.99,83.03C117.99,80.3 116.88,78.16 114.67,76.63C112.46,75.1 109.3,74.34 105.2,74.34L88.91,74.34L88.91,93.77ZM88.91,128.89L108.82,128.89C117.35,128.89 121.61,125.92 121.61,119.96L121.61,117.67C121.61,114.77 120.5,112.52 118.29,110.91C116.08,109.3 112.92,108.5 108.82,108.5L88.91,108.5L88.91,128.9L88.91,128.89Z" style="fill:white;fill-rule:nonzero;"/>
            </g>
            <g transform="matrix(-1,0,0,1,741.39,0)">
                <path d="M177.49,145.54C168,145.54 160.63,142.85 155.41,137.45C150.18,132.06 147.57,124.46 147.57,114.64L147.57,111.02C147.57,101.21 150.23,93.56 155.54,88.09C160.85,82.62 168.17,79.88 177.5,79.88L178.47,79.88C187.32,79.88 194.22,82.56 199.17,87.91C204.12,93.26 206.59,100.64 206.59,110.05L206.59,117.65L164.23,117.65C164.79,127.23 169.22,132.01 177.5,132.01L179.19,132.01C185.54,132.01 190.01,129.88 192.58,125.61L204.77,133.7C202.52,137.4 199.16,140.3 194.69,142.39C190.22,144.48 185.1,145.53 179.3,145.53L177.49,145.53L177.49,145.54ZM164.34,106.32L190.17,106.32L190.17,105.96C190.17,97.59 186.27,93.41 178.46,93.41L177.49,93.41C169.77,93.41 165.38,97.71 164.34,106.32Z" style="fill:white;fill-rule:nonzero;"/>
            </g>
            <g transform="matrix(-1,0,0,1,741.39,0)">
                <path d="M249.66,144.57C241.05,144.57 234.95,142.72 231.38,139.02C227.8,135.32 226.01,129.81 226.01,122.49L226.01,95.7L212.98,95.7L212.98,81.58L226.01,81.58L226.01,63.84L242.91,63.84L242.91,81.58L262.1,81.58L260.05,95.7L242.91,95.7L242.91,121.89C242.91,124.87 243.65,127.02 245.14,128.35C246.63,129.68 248.66,130.34 251.24,130.34L262.1,130.34L262.1,144.58L249.67,144.58L249.66,144.57Z" style="fill:white;fill-rule:nonzero;"/>
            </g>
            <g transform="matrix(-1,0,0,1,741.39,0)">
                <path d="M303.72,144.57C295.11,144.57 289.01,142.72 285.44,139.02C281.86,135.32 280.07,129.81 280.07,122.49L280.07,95.7L267.04,95.7L267.04,81.58L280.07,81.58L280.07,63.84L296.97,63.84L296.97,81.58L316.16,81.58L314.11,95.7L296.97,95.7L296.97,121.89C296.97,124.87 297.71,127.02 299.2,128.35C300.69,129.68 302.72,130.34 305.3,130.34L316.16,130.34L316.16,144.58L303.73,144.58L303.72,144.57Z" style="fill:white;fill-rule:nonzero;"/>
            </g>
            <g transform="matrix(-1,0,0,1,741.39,0)">
                <path d="M354.53,145.54C345.04,145.54 337.67,142.85 332.45,137.45C327.22,132.06 324.61,124.46 324.61,114.64L324.61,111.02C324.61,101.21 327.27,93.56 332.58,88.09C337.89,82.62 345.21,79.88 354.54,79.88L355.51,79.88C364.36,79.88 371.26,82.56 376.21,87.91C381.16,93.26 383.63,100.64 383.63,110.05L383.63,117.65L341.27,117.65C341.83,127.23 346.26,132.01 354.54,132.01L356.23,132.01C362.58,132.01 367.05,129.88 369.62,125.61L381.81,133.7C379.56,137.4 376.2,140.3 371.73,142.39C367.26,144.48 362.14,145.53 356.34,145.53L354.53,145.53L354.53,145.54ZM341.38,106.32L367.21,106.32L367.21,105.96C367.21,97.59 363.31,93.41 355.5,93.41L354.53,93.41C346.81,93.41 342.42,97.71 341.38,106.32Z" style="fill:white;fill-rule:nonzero;"/>
            </g>
            <g transform="matrix(-1,0,0,1,741.39,0)">
                <path d="M395.56,143.85L395.56,81.58L410.28,81.58L410.28,92.2C411.97,88.58 414.1,85.79 416.68,83.81C419.25,81.84 422.75,80.85 427.18,80.85L433.82,80.85L433.82,96.42L427.79,96.42C425.38,96.42 423,96.9 420.67,97.87C418.34,98.84 416.39,100.51 414.82,102.88C413.25,105.25 412.47,108.53 412.47,112.72L412.47,143.86L395.57,143.86L395.56,143.85Z" style="fill:white;fill-rule:nonzero;"/>
            </g>
            <g transform="matrix(-1,0,0,1,741.39,0)">
                <path d="M447.21,143.85L447.21,59.37L479.19,59.37C489,59.37 496.79,61.66 502.54,66.25C508.29,70.84 511.17,77.19 511.17,85.32L511.17,87.61C511.17,93.32 509.78,98.15 507.01,102.09C504.23,106.03 500.35,109.01 495.36,111.02L513.82,143.85L494.63,143.85L477.98,113.68L464.83,113.68L464.83,143.85L447.21,143.85ZM464.83,98.47L478.71,98.47C482.97,98.47 486.51,97.67 489.33,96.06C492.15,94.45 493.55,91.76 493.55,87.97L493.55,84.95C493.55,81.33 492.14,78.69 489.33,77.05C486.51,75.4 482.97,74.58 478.71,74.58L464.83,74.58L464.83,98.48L464.83,98.47Z" style="fill:white;fill-rule:nonzero;"/>
            </g>
            <g transform="matrix(-1,0,0,1,741.39,0)">
                <path d="M543.15,143.85L543.15,74.58L517.81,74.58L517.81,59.37L586.12,59.37L586.12,74.58L560.77,74.58L560.77,143.85L543.15,143.85Z" style="fill:white;fill-rule:nonzero;"/>
            </g>
            <g transform="matrix(-1,0,0,1,741.39,0)">
                <path d="M649.23,143.85L630.04,114.52L610.85,143.85L590.45,143.85L619.54,101.01L591.42,59.37L612.3,59.37L630.52,87.25L648.74,59.37L669.13,59.37L641.01,101.01L670.1,143.85L649.22,143.85L649.23,143.85Z" style="fill:white;fill-rule:nonzero;"/>
            </g>
        </g>
    </g>
    <g transform="matrix(0.376911,0,0,0.376911,-294.705,-19.333)">
        <path d="M981.155,437.437C959.606,437.437 941.173,433 925.856,424.127C910.539,415.253 898.814,402.683 890.68,386.415C882.546,370.148 878.479,350.817 878.479,328.422L878.479,315.746C878.479,293.352 882.546,274.021 890.68,257.753C898.814,241.485 910.539,228.915 925.856,220.042C941.173,211.168 959.606,206.732 981.155,206.732L984.324,206.732C1005.87,206.732 1024.31,211.168 1039.62,220.042C1054.94,228.915 1066.67,241.485 1074.8,257.753C1082.93,274.021 1087,293.352 1087,315.746L1087,328.422C1087,350.817 1082.93,370.148 1074.8,386.415C1066.67,402.683 1054.94,415.253 1039.62,424.127C1024.31,433 1005.87,437.437 984.324,437.437L981.155,437.437ZM981.472,396.873L984.007,396.873C1001.33,396.873 1015.12,391.274 1025.36,380.077C1035.61,368.88 1040.73,351.979 1040.73,329.373L1040.73,314.795C1040.73,292.19 1035.61,275.288 1025.36,264.091C1015.12,252.894 1001.33,247.295 984.007,247.295L981.472,247.295C964.148,247.295 950.363,252.894 940.116,264.091C929.87,275.288 924.747,292.19 924.747,314.795L924.747,329.373C924.747,351.979 929.87,368.88 940.116,380.077C950.363,391.274 964.148,396.873 981.472,396.873Z" style="fill:rgb(35,31,32);fill-rule:nonzero;"/>
        <path d="M1142.46,433L1142.46,306.556L1109.82,306.556L1109.82,269.478L1142.46,269.478L1142.46,262.506C1142.46,242.225 1147.53,226.696 1157.67,215.922C1167.81,205.147 1184.71,199.76 1208.37,199.76L1236.58,199.76L1236.58,237.154L1209.96,237.154C1201.72,237.154 1195.8,239.214 1192.21,243.334C1188.62,247.454 1186.83,253.316 1186.83,260.922L1186.83,269.478L1236.58,269.478L1231.19,306.556L1186.83,306.556L1186.83,433L1142.46,433ZM1256.54,433L1256.54,306.556L1223.9,306.556L1223.9,269.478L1256.54,269.478L1256.54,262.506C1256.54,242.225 1261.61,226.696 1271.76,215.922C1281.9,205.147 1298.8,199.76 1322.46,199.76L1350.66,199.76L1350.66,237.154L1324.04,237.154C1315.8,237.154 1309.89,239.214 1306.3,243.334C1302.71,247.454 1300.91,253.316 1300.91,260.922L1300.91,269.478L1350.66,269.478L1345.28,306.556L1300.91,306.556L1300.91,433L1256.54,433Z" style="fill:rgb(35,31,32);fill-rule:nonzero;"/>
    </g>
</svg>
