<?xml version="1.0" encoding="UTF-8" standalone="no"?>
<!DOCTYPE svg PUBLIC "-//W3C//DTD SVG 1.1//EN" "http://www.w3.org/Graphics/SVG/1.1/DTD/svg11.dtd">
<svg width="100%" height="100%" viewBox="0 0 989 204" version="1.1" xmlns="http://www.w3.org/2000/svg" xmlns:xlink="http://www.w3.org/1999/xlink" xml:space="preserve" xmlns:serif="http://www.serif.com/" style="fill-rule:evenodd;clip-rule:evenodd;stroke-linejoin:round;stroke-miterlimit:2;">
    <g>
        <g id="Box">
            <path d="M972.55,5L15.05,5C10.18,5 6.23,8.95 6.23,13.82L6.23,187.68C6.23,192.55 10.18,196.5 15.05,196.5L972.55,196.5C977.42,196.5 981.37,192.55 981.37,187.68L981.37,13.82C981.37,8.95 977.42,5 972.55,5ZM726.88,178.82C726.88,183.71 722.91,187.68 718.02,187.68L25.17,187.68C20.28,187.68 16.31,183.71 16.31,178.82L16.31,22.68C16.31,17.79 20.28,13.82 25.17,13.82L718.02,13.82C722.91,13.82 726.88,17.79 726.88,22.68L726.88,178.82Z" style="fill:url(#_Linear1);fill-rule:nonzero;"/>
        </g>
        <g id="BetterRTX">
            <path d="M71.29,143.85L71.29,59.37L105.69,59.37C114.94,59.37 122.24,61.48 127.59,65.71C132.94,69.93 135.62,75.63 135.62,82.79L135.62,84.84C135.62,88.06 134.79,90.93 133.15,93.47C131.5,96 129.19,98.12 126.21,99.81C130.39,101.5 133.61,103.87 135.86,106.93C138.11,109.99 139.24,113.65 139.24,117.91L139.24,119.96C139.24,127.44 136.6,133.3 131.34,137.52C126.08,141.74 118.73,143.86 109.32,143.86L71.3,143.86L71.29,143.85ZM88.91,93.77L105.2,93.77C113.73,93.77 117.99,90.87 117.99,85.08L117.99,83.03C117.99,80.3 116.88,78.16 114.67,76.63C112.46,75.1 109.3,74.34 105.2,74.34L88.91,74.34L88.91,93.77ZM88.91,128.89L108.82,128.89C117.35,128.89 121.61,125.92 121.61,119.96L121.61,117.67C121.61,114.77 120.5,112.52 118.29,110.91C116.08,109.3 112.92,108.5 108.82,108.5L88.91,108.5L88.91,128.9L88.91,128.89Z" style="fill:white;fill-rule:nonzero;"/>
            <path d="M177.49,145.54C168,145.54 160.63,142.85 155.41,137.45C150.18,132.06 147.57,124.46 147.57,114.64L147.57,111.02C147.57,101.21 150.23,93.56 155.54,88.09C160.85,82.62 168.17,79.88 177.5,79.88L178.47,79.88C187.32,79.88 194.22,82.56 199.17,87.91C204.12,93.26 206.59,100.64 206.59,110.05L206.59,117.65L164.23,117.65C164.79,127.23 169.22,132.01 177.5,132.01L179.19,132.01C185.54,132.01 190.01,129.88 192.58,125.61L204.77,133.7C202.52,137.4 199.16,140.3 194.69,142.39C190.22,144.48 185.1,145.53 179.3,145.53L177.49,145.53L177.49,145.54ZM164.34,106.32L190.17,106.32L190.17,105.96C190.17,97.59 186.27,93.41 178.46,93.41L177.49,93.41C169.77,93.41 165.38,97.71 164.34,106.32Z" style="fill:white;fill-rule:nonzero;"/>
            <path d="M249.66,144.57C241.05,144.57 234.95,142.72 231.38,139.02C227.8,135.32 226.01,129.81 226.01,122.49L226.01,95.7L212.98,95.7L212.98,81.58L226.01,81.58L226.01,63.84L242.91,63.84L242.91,81.58L262.1,81.58L260.05,95.7L242.91,95.7L242.91,121.89C242.91,124.87 243.65,127.02 245.14,128.35C246.63,129.68 248.66,130.34 251.24,130.34L262.1,130.34L262.1,144.58L249.67,144.58L249.66,144.57Z" style="fill:white;fill-rule:nonzero;"/>
            <path d="M303.72,144.57C295.11,144.57 289.01,142.72 285.44,139.02C281.86,135.32 280.07,129.81 280.07,122.49L280.07,95.7L267.04,95.7L267.04,81.58L280.07,81.58L280.07,63.84L296.97,63.84L296.97,81.58L316.16,81.58L314.11,95.7L296.97,95.7L296.97,121.89C296.97,124.87 297.71,127.02 299.2,128.35C300.69,129.68 302.72,130.34 305.3,130.34L316.16,130.34L316.16,144.58L303.73,144.58L303.72,144.57Z" style="fill:white;fill-rule:nonzero;"/>
            <path d="M354.53,145.54C345.04,145.54 337.67,142.85 332.45,137.45C327.22,132.06 324.61,124.46 324.61,114.64L324.61,111.02C324.61,101.21 327.27,93.56 332.58,88.09C337.89,82.62 345.21,79.88 354.54,79.88L355.51,79.88C364.36,79.88 371.26,82.56 376.21,87.91C381.16,93.26 383.63,100.64 383.63,110.05L383.63,117.65L341.27,117.65C341.83,127.23 346.26,132.01 354.54,132.01L356.23,132.01C362.58,132.01 367.05,129.88 369.62,125.61L381.81,133.7C379.56,137.4 376.2,140.3 371.73,142.39C367.26,144.48 362.14,145.53 356.34,145.53L354.53,145.53L354.53,145.54ZM341.38,106.32L367.21,106.32L367.21,105.96C367.21,97.59 363.31,93.41 355.5,93.41L354.53,93.41C346.81,93.41 342.42,97.71 341.38,106.32Z" style="fill:white;fill-rule:nonzero;"/>
            <path d="M395.56,143.85L395.56,81.58L410.28,81.58L410.28,92.2C411.97,88.58 414.1,85.79 416.68,83.81C419.25,81.84 422.75,80.85 427.18,80.85L433.82,80.85L433.82,96.42L427.79,96.42C425.38,96.42 423,96.9 420.67,97.87C418.34,98.84 416.39,100.51 414.82,102.88C413.25,105.25 412.47,108.53 412.47,112.72L412.47,143.86L395.57,143.86L395.56,143.85Z" style="fill:white;fill-rule:nonzero;"/>
            <path d="M447.21,143.85L447.21,59.37L479.19,59.37C489,59.37 496.79,61.66 502.54,66.25C508.29,70.84 511.17,77.19 511.17,85.32L511.17,87.61C511.17,93.32 509.78,98.15 507.01,102.09C504.23,106.03 500.35,109.01 495.36,111.02L513.82,143.85L494.63,143.85L477.98,113.68L464.83,113.68L464.83,143.85L447.21,143.85ZM464.83,98.47L478.71,98.47C482.97,98.47 486.51,97.67 489.33,96.06C492.15,94.45 493.55,91.76 493.55,87.97L493.55,84.95C493.55,81.33 492.14,78.69 489.33,77.05C486.51,75.4 482.97,74.58 478.71,74.58L464.83,74.58L464.83,98.48L464.83,98.47Z" style="fill:white;fill-rule:nonzero;"/>
            <path d="M543.15,143.85L543.15,74.58L517.81,74.58L517.81,59.37L586.12,59.37L586.12,74.58L560.77,74.58L560.77,143.85L543.15,143.85Z" style="fill:white;fill-rule:nonzero;"/>
            <path d="M649.23,143.85L630.04,114.52L610.85,143.85L590.45,143.85L619.54,101.01L591.42,59.37L612.3,59.37L630.52,87.25L648.74,59.37L669.13,59.37L641.01,101.01L670.1,143.85L649.22,143.85L649.23,143.85Z" style="fill:white;fill-rule:nonzero;"/>
        </g>
        <g id="On">
            <path d="M811.51,145.74C803.36,145.74 796.38,144.06 790.59,140.71C784.79,137.35 780.36,132.6 777.28,126.44C774.2,120.29 772.66,112.97 772.66,104.5L772.66,99.71C772.66,91.24 774.2,83.93 777.28,77.77C780.36,71.62 784.79,66.86 790.59,63.5C796.38,60.14 803.36,58.46 811.51,58.46L812.71,58.46C820.86,58.46 827.83,60.14 833.63,63.5C839.42,66.86 843.86,71.61 846.93,77.77C850.01,83.92 851.55,91.24 851.55,99.71L851.55,104.5C851.55,112.97 850.01,120.29 846.93,126.44C843.85,132.6 839.42,137.35 833.63,140.71C827.83,144.07 820.86,145.74 812.71,145.74L811.51,145.74ZM811.63,130.4L812.59,130.4C819.14,130.4 824.36,128.28 828.24,124.05C832.12,119.82 834.05,113.42 834.05,104.87L834.05,99.36C834.05,90.81 832.11,84.42 828.24,80.18C824.36,75.95 819.15,73.83 812.59,73.83L811.63,73.83C805.07,73.83 799.86,75.95 795.98,80.18C792.1,84.42 790.17,90.81 790.17,99.36L790.17,104.87C790.17,113.42 792.11,119.82 795.98,124.05C799.86,128.29 805.07,130.4 811.63,130.4Z" style="fill:rgb(35,31,32);fill-rule:nonzero;"/>
            <path d="M865.58,144.06L865.58,82.2L880.2,82.2L880.2,89.87C882.28,86.91 884.94,84.62 888.17,82.98C891.41,81.34 895.02,80.52 899.02,80.52L900.22,80.52C907.25,80.52 912.83,82.7 916.94,87.05C921.06,91.41 923.11,97.62 923.11,105.69L923.11,144.05L906.33,144.05L906.33,107.97C906.33,103.82 905.47,100.6 903.75,98.32C902.03,96.04 899.33,94.9 895.66,94.9L894.7,94.9C892.7,94.9 890.76,95.42 888.89,96.46C887.01,97.5 885.45,99.1 884.21,101.25C882.97,103.4 882.35,106.25 882.35,109.76L882.35,144.05L865.57,144.05L865.58,144.06Z" style="fill:rgb(35,31,32);fill-rule:nonzero;"/>
        </g>
    </g>
    <defs>
        <linearGradient id="_Linear1" x1="0" y1="0" x2="1" y2="0" gradientUnits="userSpaceOnUse" gradientTransform="matrix(975.14,0,0,191.5,6.23,100.75)"><stop offset="0" style="stop-color:rgb(254,255,138);stop-opacity:1"/><stop offset="1" style="stop-color:rgb(255,170,34);stop-opacity:1"/></linearGradient>
    </defs>
</svg>
